<?xml version="1.0" encoding="iso-8859-1"?>
<!-- Generator: Adobe Illustrator 19.0.0, SVG Export Plug-In . SVG Version: 6.00 Build 0)  -->
<svg version="1.1" id="Capa_1" fill="#fff" xmlns="http://www.w3.org/2000/svg" xmlns:xlink="http://www.w3.org/1999/xlink" x="0px" y="0px"
	 viewBox="0 0 512 512" style="enable-background:new 0 0 512 512;" xml:space="preserve">
<g>
	<g>
		<path d="M244.894,53.381c-12.435,0-22.552,10.117-22.552,22.552v63.829c0,2.523-2.409,4.48-4.48,4.48
			c-2.071,0-4.48-1.957-4.48-4.48V76.33c0-11.633-8.522-21.43-19.821-22.785c-6.411-0.775-12.851,1.243-17.674,5.521
			c-4.835,4.29-7.608,10.437-7.608,16.866v63.829c0,2.471-2.01,4.48-4.48,4.48s-4.48-2.01-4.48-4.48V75.932
			c0-12.435-10.116-22.552-22.552-22.552s-22.552,10.116-22.552,22.552v114.453c0,31.829,19.514,59.18,47.205,70.736v32.324
			c0,4.143,3.358,7.5,7.5,7.5s7.5-3.357,7.5-7.5v-27.824c4.671,0.893,9.485,1.379,14.412,1.379s9.742-0.486,14.412-1.379v53.455
			h-36.762c-13.779,0-24.989,11.21-24.989,24.99v120.594c0,26.103,21.236,47.339,47.339,47.339
			c26.103,0,47.339-21.236,47.339-47.339V344.068c0-11.327-7.577-20.912-17.927-23.967v-58.979
			c27.69-11.556,47.204-38.906,47.204-70.735V75.932C267.445,63.498,257.329,53.381,244.894,53.381z M223.168,344.067v120.594h0.001
			c0,17.832-14.507,32.339-32.339,32.339s-32.339-14.507-32.339-32.339V344.067c0-5.509,4.481-9.99,9.99-9.99h44.699
			C218.688,334.076,223.168,338.558,223.168,344.067z M190.83,252.001c-33.975,0-61.616-27.642-61.616-61.616V75.932
			c0-4.165,3.388-7.553,7.553-7.553c4.165,0,7.553,3.388,7.553,7.553v63.829c0,10.74,8.739,19.479,19.479,19.479
			c10.74,0,19.479-8.739,19.479-19.479V75.932c0-2.144,0.934-4.201,2.563-5.646c1.641-1.456,3.746-2.108,5.933-1.851
			c3.707,0.445,6.61,3.912,6.61,7.894v63.432c0,10.559,8.921,19.479,19.479,19.479s19.479-8.921,19.479-19.479V75.932
			c0-4.165,3.388-7.553,7.553-7.553s7.553,3.388,7.553,7.553v114.453h0C252.446,224.361,224.805,252.001,190.83,252.001z"/>
	</g>
</g>
<g>
	<g>
		<path d="M390.284,406.573c-4.142,0-7.5,3.357-7.5,7.5v50.589c0,17.832-14.507,32.339-32.339,32.339
			c-17.832,0-32.339-14.507-32.339-32.339V310.939c0-6.136,4.992-11.126,11.126-11.126h42.425c6.136,0,11.126,4.991,11.126,11.126
			v72.819c0,4.142,3.358,7.499,7.5,7.499s7.5-3.357,7.5-7.5v-72.819c0-11.541-7.527-21.353-17.927-24.801V24.334
			c0-11.004-6.818-20.14-17.369-23.273c-10.541-3.13-21.228,0.798-27.227,10.008c-40.334,61.922-51.266,147.931-53.333,209.181
			c-0.302,8.938,3.105,17.258,9.169,23.829c9.723,10.536,29.943,9.964,29.943,9.964v32.093
			c-10.402,3.446-17.931,13.258-17.931,24.802v153.722c0,26.103,21.236,47.339,47.339,47.339c26.103,0,47.339-21.236,47.339-47.339
			v-50.589C397.783,409.929,394.426,406.573,390.284,406.573z M364.856,284.813h-28.82v-30.765l28.82,0.007V284.813z
			 M314.571,239.043c-4.828-0.002-9.335-1.915-12.692-5.388c-3.364-3.479-5.126-8.061-4.963-12.898
			c3.63-107.516,29.69-168.921,50.911-201.501c2.777-4.264,7.187-4.77,10.388-3.816c3.21,0.953,6.641,3.79,6.641,8.895v214.721
			L314.571,239.043z"/>
	</g>
</g>
<g>
	<g>
		<path d="M229.948,182.886c-4.142,0-7.5,3.357-7.5,7.5c0,14.433-9.762,27.027-23.739,30.625c-4.012,1.032-6.427,5.121-5.394,9.133
			c0.871,3.384,3.874,6.455,9.133,5.393c20.858-4.21,34.999-23.872,34.999-45.151C237.448,186.243,234.09,182.886,229.948,182.886z"
			/>
	</g>
</g>
<g>
</g>
<g>
</g>
<g>
</g>
<g>
</g>
<g>
</g>
<g>
</g>
<g>
</g>
<g>
</g>
<g>
</g>
<g>
</g>
<g>
</g>
<g>
</g>
<g>
</g>
<g>
</g>
<g>
</g>
</svg>
