<?xml version="1.0" encoding="iso-8859-1"?>
<!-- Generator: Adobe Illustrator 16.0.0, SVG Export Plug-In . SVG Version: 6.00 Build 0)  -->
<!DOCTYPE svg PUBLIC "-//W3C//DTD SVG 1.1//EN" "http://www.w3.org/Graphics/SVG/1.1/DTD/svg11.dtd">
<svg version="1.1" id="Capa_1" fill="#ffb612" xmlns="http://www.w3.org/2000/svg" xmlns:xlink="http://www.w3.org/1999/xlink" x="0px" y="0px"
	 width="466.827px" height="466.827px" viewBox="0 0 466.827 466.827" style="enable-background:new 0 0 466.827 466.827;"
	 xml:space="preserve">
<g>
	<g>
		<path d="M448.619,198.832c-1.117-0.383-2.326-0.645-3.707-0.65c-23.979-0.025-47.981-0.213-71.99-0.406
			c-6.403-41.292-6.027-83.109-8.287-124.764c-0.36-6.559-5.348-10.011-10.466-10.417c-0.965-0.269-1.98-0.467-3.139-0.467
			c-75.113-0.119-150.066-1.846-224.67,8.554c-6.66,0.927-8.714,6.256-7.563,11.327c-0.173,0.607-0.345,1.221-0.427,1.892
			c-4.872,39.56-5.616,79.381-7.833,119.134c-34.266,2.651-68.466,6.421-102.544,11.865c-6.985,1.12-8.93,7.015-7.384,12.304
			c-0.365,1.092-0.614,2.277-0.609,3.633c0.297,65.809,5.969,87.648,16.717,152.561c0.432,2.61,1.528,4.509,3.011,5.799
			c0.922,4.545,4.311,8.647,10.207,8.998c141,8.419,283.153,12.04,423.315-8.551c6.302-0.925,8.476-5.774,7.719-10.593
			c0.097-0.422,0.224-0.817,0.274-1.265c7.835-70.63,6.602-97.938,1.36-168.713C462.005,201.104,454.632,197.688,448.619,198.832z
			 M139.373,90.806c67.664-8.678,135.925-7.165,204.015-6.946c1.752,38.031,2.291,76.037,7.648,113.752
			c-72.956-0.551-145.949-0.719-218.648,3.89C134.417,164.571,135.275,127.583,139.373,90.806z M310.133,381.34
			c0.021-0.284,0.086-0.554,0.086-0.833v-5.443c0-5.906-4.9-10.821-10.79-10.877c-1.625-0.817-3.515-1.209-5.606-1.092
			c-0.833-0.162-1.676-0.32-2.651-0.274c-3.849,0.178-7.697,0.366-11.547,0.544c-1.036-0.325-2.153-0.549-3.418-0.544
			c-30.868,0.102-61.692,1.381-92.521,2.722c-0.495,0.021-0.932,0.122-1.389,0.198c-0.447-0.066-0.868-0.198-1.333-0.198
			c-5.931,0-10.882,4.951-10.882,10.883v5.996c-9.605-0.188-19.213-0.365-28.812-0.69c-0.041-0.462-0.046-0.914-0.145-1.401
			c-1.795-8.749-2.202-17.666-2.293-26.578c64.722-7.516,129.682-5.723,194.573-1.117c0.106,9.191,0.472,18.316,1.554,27.416
			C326.682,380.558,318.399,380.959,310.133,381.34z M440.251,369.625c-27.797,3.91-55.686,6.794-83.64,8.922
			c-1.396-10.618-1.493-21.343-1.498-32.062c0-2.803-0.889-5.017-2.274-6.703c-1.168-4.199-4.475-7.851-9.964-8.267
			c-70.786-5.307-141.667-7.729-212.254,1.361c-0.66,0.081-1.259,0.254-1.851,0.426c-5.72-0.396-11.758,3.062-11.753,10.456
			c0.005,12.466,0.297,24.872,2.272,37.165c-27.274-1.091-54.515-2.478-81.695-4.066c-10.135-61.484-15.292-79.861-15.767-142.153
			c138.812-21.104,279.809-15.013,419.728-14.77C445.938,284.371,446.756,305.317,440.251,369.625z"/>
		<path d="M287.084,126.07c13.746-1.704,13.908-23.499,0-21.772c-36.217,4.499-72.456,3.121-108.85,4.083
			c-14.007,0.371-14.048,22.14,0,21.771C214.628,129.19,250.867,130.569,287.084,126.07z"/>
		<path d="M289.8,151.924c-36.643-2.635-71.896-4.019-107.655,5.83c-13.518,3.722-7.767,24.725,5.789,20.992
			c33.898-9.336,67.204-7.546,101.866-5.055C303.815,174.699,303.724,152.922,289.8,151.924z"/>
		<path d="M400.008,243.087h-27.213c-14.036,0-14.036,21.77,0,21.77h27.213C414.048,264.851,414.048,243.087,400.008,243.087z"/>
		<path d="M341.504,244.442c-14.035,0-14.035,21.77,0,21.77C355.545,266.212,355.545,244.442,341.504,244.442z"/>
	</g>
</g>
<g>
</g>
<g>
</g>
<g>
</g>
<g>
</g>
<g>
</g>
<g>
</g>
<g>
</g>
<g>
</g>
<g>
</g>
<g>
</g>
<g>
</g>
<g>
</g>
<g>
</g>
<g>
</g>
<g>
</g>
</svg>
