<svg width="16" height="10" viewBox="0 0 16 10" fill="none" xmlns="http://www.w3.org/2000/svg">
<path fill-rule="evenodd" clip-rule="evenodd" d="M2.00498 1.25L7.99998 8.10125L13.995 1.25H2.00498ZM1.06373 2.07375L7.05873 8.92375C7.17606 9.05801 7.32075 9.16562 7.48309 9.23935C7.64544 9.31308 7.82168 9.35122 7.99998 9.35122C8.17828 9.35122 8.35452 9.31308 8.51687 9.23935C8.67921 9.16562 8.8239 9.05801 8.94123 8.92375L14.9362 2.07375C15.6437 1.265 15.0687 4.59632e-07 13.995 4.59632e-07H2.00498C1.76467 -0.000205574 1.5294 0.0688598 1.32734 0.198926C1.12528 0.328993 0.964987 0.514546 0.865667 0.733366C0.766347 0.952187 0.732207 1.195 0.767334 1.43272C0.802461 1.67045 0.905367 1.89301 1.06373 2.07375Z" fill="#0028AA"/>
</svg>
