<?xml version="1.0" encoding="utf-8"?>
<!-- Generator: Adobe Illustrator 22.1.0, SVG Export Plug-In . SVG Version: 6.00 Build 0)  -->
<svg version="1.1" id="Capa_1" xmlns="http://www.w3.org/2000/svg" xmlns:xlink="http://www.w3.org/1999/xlink" x="0px" y="0px"
	 viewBox="0 0 8 5" style="enable-background:new 0 0 8 5;" xml:space="preserve">
<style type="text/css">
	.st0{fill:#ffb612;}
</style>
<path class="st0" d="M0,1c0,0.1,0,0.1,0.1,0.1l3.8,3.8c0,0,0,0,0,0C4,5,4.1,5,4.2,4.9l3.8-3.8C8,1.1,8,1.1,8,1C8,1,8,0.9,7.9,0.9
	L7.1,0C7.1,0,7,0,7,0c0,0,0,0,0,0L4,3c0,0,0,0,0,0L1,0c0,0-0.1,0-0.1,0c0,0,0,0,0,0L0.1,0.9C0,0.9,0,0.9,0,1C0,0.9,0,0.9,0,1
	C0,1,0,1,0,1z"/>
</svg>
