<svg width="184" height="138" xmlns="http://www.w3.org/2000/svg" xmlns:xlink="http://www.w3.org/1999/xlink"><svg width="46" height="46" viewBox="-5 -5 46 46" xmlns="http://www.w3.org/2000/svg"><g fill="none" fill-rule="evenodd"><circle fill="#3B5998" cx="18" cy="18" r="18"/><path d="M22.346 9.13v2.855h-1.698c-1.331 0-1.58.639-1.58 1.558v2.045h3.17l-.422 3.202h-2.748V27h-3.31v-8.21H13v-3.202h2.758v-2.359C15.758 10.493 17.435 9 19.88 9c1.168 0 2.174.087 2.467.13h-.001z" fill="#FFF"/></g></svg><svg width="46" height="46" viewBox="-5 -5 46 46" x="46" xmlns="http://www.w3.org/2000/svg"><g fill="none" fill-rule="evenodd"><circle fill="#FFF" cx="18" cy="18" r="18"/><path d="M22.346 9.13v2.855h-1.698c-1.331 0-1.58.639-1.58 1.558v2.045h3.17l-.422 3.202h-2.748V27h-3.31v-8.21H13v-3.202h2.758v-2.359C15.758 10.493 17.435 9 19.88 9c1.168 0 2.174.087 2.467.13h-.001z" fill="#3B5998"/></g></svg><svg width="46" height="46" viewBox="-5 -5 46 46" y="46" xmlns="http://www.w3.org/2000/svg"><g fill="none" fill-rule="evenodd"><circle fill="#E4405F" cx="18" cy="18" r="18"/><path d="M21 18c0-1.652-1.349-3-3-3-1.653 0-3 1.348-3 3s1.347 3 3 3c1.651 0 3-1.348 3-3zm1.616 0A4.611 4.611 0 0118 22.617 4.611 4.611 0 0113.382 18 4.611 4.611 0 0118 13.383 4.611 4.611 0 0122.616 18zm1.266-4.804c0 .597-.48 1.077-1.078 1.077-.597 0-1.077-.48-1.077-1.077s.48-1.078 1.077-1.078 1.078.48 1.078 1.078zM18 10.617c-1.312 0-4.125-.106-5.308.363-.41.164-.715.363-1.031.68a2.868 2.868 0 00-.68 1.03c-.469 1.184-.363 3.997-.363 5.31 0 1.312-.106 4.124.363 5.308.164.41.363.714.68 1.031.316.316.62.516 1.03.68 1.184.468 3.997.362 5.31.362 1.312 0 4.124.106 5.308-.363.41-.164.714-.363 1.031-.679.316-.317.516-.621.68-1.031.468-1.184.362-3.996.362-5.309 0-1.312.106-4.125-.363-5.308a2.878 2.878 0 00-.679-1.031 2.868 2.868 0 00-1.031-.68c-1.184-.469-3.996-.363-5.309-.363zM27 18c0 1.242.012 2.473-.058 3.715-.07 1.441-.399 2.718-1.453 3.773-1.055 1.054-2.332 1.383-3.773 1.453-1.242.07-2.473.058-3.715.058s-2.473.012-3.715-.058c-1.441-.07-2.718-.399-3.773-1.453-1.054-1.055-1.383-2.332-1.453-3.773-.07-1.242-.058-2.473-.058-3.715s-.012-2.473.058-3.715c.07-1.441.399-2.718 1.453-3.773 1.055-1.054 2.332-1.383 3.773-1.453 1.242-.07 2.473-.058 3.715-.058s2.473-.012 3.715.058c1.441.07 2.718.399 3.773 1.453 1.054 1.055 1.383 2.332 1.453 3.773.07 1.242.058 2.473.058 3.715z" fill="#FFF"/></g></svg><svg width="46" height="46" viewBox="-5 -5 46 46" x="46" y="46" xmlns="http://www.w3.org/2000/svg"><g fill="none" fill-rule="evenodd"><circle fill="#FFF" cx="18" cy="18" r="18"/><path d="M21 18c0-1.652-1.349-3-3-3-1.653 0-3 1.348-3 3s1.347 3 3 3c1.651 0 3-1.348 3-3zm1.616 0A4.611 4.611 0 0118 22.617 4.611 4.611 0 0113.382 18 4.611 4.611 0 0118 13.383 4.611 4.611 0 0122.616 18zm1.266-4.804c0 .597-.48 1.077-1.078 1.077-.597 0-1.077-.48-1.077-1.077s.48-1.078 1.077-1.078 1.078.48 1.078 1.078zM18 10.617c-1.312 0-4.125-.106-5.308.363-.41.164-.715.363-1.031.68a2.868 2.868 0 00-.68 1.03c-.469 1.184-.363 3.997-.363 5.31 0 1.312-.106 4.124.363 5.308.164.41.363.714.68 1.031.316.316.62.516 1.03.68 1.184.468 3.997.362 5.31.362 1.312 0 4.124.106 5.308-.363.41-.164.714-.363 1.031-.679.316-.317.516-.621.68-1.031.468-1.184.362-3.996.362-5.309 0-1.312.106-4.125-.363-5.308a2.878 2.878 0 00-.679-1.031 2.868 2.868 0 00-1.031-.68c-1.184-.469-3.996-.363-5.309-.363zM27 18c0 1.242.012 2.473-.058 3.715-.07 1.441-.399 2.718-1.453 3.773-1.055 1.054-2.332 1.383-3.773 1.453-1.242.07-2.473.058-3.715.058s-2.473.012-3.715-.058c-1.441-.07-2.718-.399-3.773-1.453-1.054-1.055-1.383-2.332-1.453-3.773-.07-1.242-.058-2.473-.058-3.715s-.012-2.473.058-3.715c.07-1.441.399-2.718 1.453-3.773 1.055-1.054 2.332-1.383 3.773-1.453 1.242-.07 2.473-.058 3.715-.058s2.473-.012 3.715.058c1.441.07 2.718.399 3.773 1.453 1.054 1.055 1.383 2.332 1.453 3.773.07 1.242.058 2.473.058 3.715z" fill="#E4405F"/></g></svg><svg width="46" height="46" viewBox="-5 -5 46 46" x="92" xmlns="http://www.w3.org/2000/svg"><g fill="none" fill-rule="evenodd"><circle fill="#007BB6" cx="18" cy="18" r="18"/><path d="M13.09 14.59v11.613H9.223V14.59h3.867zm.246-3.586c.012 1.113-.832 2.004-2.18 2.004h-.023c-1.3 0-2.133-.891-2.133-2.004C9 9.867 9.867 9 11.18 9c1.324 0 2.144.867 2.156 2.004zM27 19.547v6.656h-3.856v-6.21c0-1.559-.562-2.625-1.957-2.625-1.066 0-1.699.714-1.98 1.406-.094.258-.13.598-.13.95v6.48h-3.855c.047-10.523 0-11.613 0-11.613h3.856v1.688h-.024c.504-.797 1.419-1.957 3.504-1.957 2.544 0 4.442 1.664 4.442 5.227v-.002z" fill="#FFF"/></g></svg><svg width="46" height="46" viewBox="-5 -5 46 46" x="92" y="46" xmlns="http://www.w3.org/2000/svg"><g fill="none" fill-rule="evenodd"><circle fill="#FFF" cx="18" cy="18" r="18"/><path d="M13.09 14.59v11.613H9.223V14.59h3.867zm.246-3.586c.012 1.113-.832 2.004-2.18 2.004h-.023c-1.3 0-2.133-.891-2.133-2.004C9 9.867 9.867 9 11.18 9c1.324 0 2.144.867 2.156 2.004zM27 19.547v6.656h-3.856v-6.21c0-1.559-.562-2.625-1.957-2.625-1.066 0-1.699.714-1.98 1.406-.094.258-.13.598-.13.95v6.48h-3.855c.047-10.523 0-11.613 0-11.613h3.856v1.688h-.024c.504-.797 1.419-1.957 3.504-1.957 2.544 0 4.442 1.664 4.442 5.227v-.002z" fill="#007BB6"/></g></svg><svg width="46" height="46" viewBox="-5 -5 46 46" y="92" xmlns="http://www.w3.org/2000/svg"><g fill="none" fill-rule="evenodd"><circle fill="#00ACED" cx="18" cy="18" r="18"/><path d="M27 12.737a7.931 7.931 0 01-1.85 1.907c.012.16.012.32.012.48 0 4.877-3.712 10.496-10.497 10.496-2.09 0-4.032-.605-5.665-1.657.297.035.583.047.891.047a7.392 7.392 0 004.58-1.577 3.696 3.696 0 01-3.45-2.558c.23.034.458.057.698.057.33 0 .662-.046.97-.126a3.69 3.69 0 01-2.958-3.62v-.046a3.723 3.723 0 001.667.468 3.687 3.687 0 01-1.644-3.072c0-.686.182-1.314.503-1.862a10.485 10.485 0 007.606 3.86 4.172 4.172 0 01-.091-.845A3.688 3.688 0 0121.462 11c1.061 0 2.021.445 2.694 1.165a7.268 7.268 0 002.342-.89 3.678 3.678 0 01-1.622 2.032 7.397 7.397 0 002.124-.57z" fill="#FFF"/></g></svg><svg width="46" height="46" viewBox="-5 -5 46 46" x="46" y="92" xmlns="http://www.w3.org/2000/svg"><g fill="none" fill-rule="evenodd"><circle fill="#FFF" cx="18" cy="18" r="18"/><path d="M27 12.737a7.931 7.931 0 01-1.85 1.907c.012.16.012.32.012.48 0 4.877-3.712 10.496-10.497 10.496-2.09 0-4.032-.605-5.665-1.657.297.035.583.047.891.047a7.392 7.392 0 004.58-1.577 3.696 3.696 0 01-3.45-2.558c.23.034.458.057.698.057.33 0 .662-.046.97-.126a3.69 3.69 0 01-2.958-3.62v-.046a3.723 3.723 0 001.667.468 3.687 3.687 0 01-1.644-3.072c0-.686.182-1.314.503-1.862a10.485 10.485 0 007.606 3.86 4.172 4.172 0 01-.091-.845A3.688 3.688 0 0121.462 11c1.061 0 2.021.445 2.694 1.165a7.268 7.268 0 002.342-.89 3.678 3.678 0 01-1.622 2.032 7.397 7.397 0 002.124-.57z" fill="#00ACED"/></g></svg><svg width="46" height="46" viewBox="-5 -5 46 46" x="92" y="92" xmlns="http://www.w3.org/2000/svg"><g fill="none" fill-rule="evenodd"><circle fill="#B00" cx="18" cy="18" r="18"/><path d="M16.142 20.659l4.86-2.511-4.86-2.542v5.053zM18 12c3.787 0 6.298.18 6.298.18.352.041 1.125.041 1.808.764 0 0 .552.543.713 1.788.19 1.457.18 2.913.18 2.913v1.366s.01 1.457-.18 2.913c-.16 1.235-.713 1.788-.713 1.788-.683.713-1.457.713-1.808.753 0 0-2.51.19-6.298.19-4.68-.04-6.117-.18-6.117-.18-.402-.07-1.306-.05-1.99-.763 0 0-.552-.553-.712-1.788C8.99 20.467 9 19.01 9 19.01v-1.366s-.011-1.457.18-2.913c.16-1.245.713-1.788.713-1.788.682-.723 1.456-.723 1.807-.763 0 0 2.511-.181 6.298-.181H18z" fill="#FFF"/></g></svg><svg width="46" height="46" viewBox="-5 -5 46 46" x="138" xmlns="http://www.w3.org/2000/svg"><g fill="none" fill-rule="evenodd"><circle fill="#FFF" cx="18" cy="18" r="18"/><path d="M16.142 20.659l4.86-2.511-4.86-2.542v5.053zM18 12c3.787 0 6.298.18 6.298.18.352.041 1.125.041 1.808.764 0 0 .552.543.713 1.788.19 1.457.18 2.913.18 2.913v1.366s.01 1.457-.18 2.913c-.16 1.235-.713 1.788-.713 1.788-.683.713-1.457.713-1.808.753 0 0-2.51.19-6.298.19-4.68-.04-6.117-.18-6.117-.18-.402-.07-1.306-.05-1.99-.763 0 0-.552-.553-.712-1.788C8.99 20.467 9 19.01 9 19.01v-1.366s-.011-1.457.18-2.913c.16-1.245.713-1.788.713-1.788.682-.723 1.456-.723 1.807-.763 0 0 2.511-.181 6.298-.181H18z" fill="#B00"/></g></svg></svg>