<svg id="Layer_35" fill="#ffb612" enable-background="new 0 0 64 64" height="512" viewBox="0 0 64 64" width="512" xmlns="http://www.w3.org/2000/svg"><g><path d="m51 61v-59c0-.552-.448-1-1-1h-36c-.552 0-1 .448-1 1v59h-12v2h62v-2zm-36-58h34v58h-2v-55c0-.552-.448-1-1-1h-28c-.552 0-1 .448-1 1v55h-2zm30 58h-26v-54h26z"/><path d="m42 28h2v8h-2z"/><path d="m24 39h16c.552 0 1-.447 1-1v-28c0-.552-.448-1-1-1h-16c-.552 0-1 .448-1 1v28c0 .553.448 1 1 1zm1-28h14v26h-14z"/><path d="m24 59h16c.552 0 1-.447 1-1v-16c0-.553-.448-1-1-1h-16c-.552 0-1 .447-1 1v16c0 .553.448 1 1 1zm1-16h14v14h-14z"/><path d="m37 12h-10c-.552 0-1 .448-1 1v22c0 .553.448 1 1 1h10c.552 0 1-.447 1-1v-22c0-.552-.448-1-1-1zm-1 22h-8v-20h8z"/><path d="m37 44h-10c-.552 0-1 .447-1 1v10c0 .553.448 1 1 1h10c.552 0 1-.447 1-1v-10c0-.553-.448-1-1-1zm-1 10h-8v-8h8z"/></g></svg>