<svg id="Icons" height="512" viewBox="0 0 74 74" width="512" xmlns="http://www.w3.org/2000/svg"><path d="m59.662 46.918a14.268 14.268 0 0 1 -6.036-1.184 12.4 12.4 0 0 0 -5.3-1.046 12.38 12.38 0 0 0 -5.3 1.046 14.254 14.254 0 0 1 -6.032 1.184 14.259 14.259 0 0 1 -6.033-1.184 12.386 12.386 0 0 0 -5.3-1.046 12.38 12.38 0 0 0 -5.3 1.046 14.252 14.252 0 0 1 -6.031 1.184 14.249 14.249 0 0 1 -6.03-1.184 12.369 12.369 0 0 0 -5.3-1.046 1 1 0 0 1 0-2 14.245 14.245 0 0 1 6.03 1.185 12.392 12.392 0 0 0 5.3 1.045 12.392 12.392 0 0 0 5.3-1.045 14.255 14.255 0 0 1 6.032-1.185 14.257 14.257 0 0 1 6.033 1.185 12.407 12.407 0 0 0 5.3 1.045 12.4 12.4 0 0 0 5.3-1.045 14.246 14.246 0 0 1 6.031-1.185 14.264 14.264 0 0 1 6.035 1.185 12.419 12.419 0 0 0 5.3 1.045 12.405 12.405 0 0 0 5.3-1.045 14.273 14.273 0 0 1 6.039-1.185 1 1 0 0 1 0 2 12.4 12.4 0 0 0 -5.3 1.046 14.261 14.261 0 0 1 -6.038 1.184z"/><path d="m59.662 55.836a14.268 14.268 0 0 1 -6.036-1.184 12.4 12.4 0 0 0 -5.3-1.046 12.38 12.38 0 0 0 -5.3 1.046 14.254 14.254 0 0 1 -6.032 1.184 14.259 14.259 0 0 1 -6.033-1.184 12.386 12.386 0 0 0 -5.3-1.046 12.38 12.38 0 0 0 -5.3 1.046 14.252 14.252 0 0 1 -6.031 1.184 14.249 14.249 0 0 1 -6.03-1.184 12.369 12.369 0 0 0 -5.3-1.046 1 1 0 0 1 0-2 14.229 14.229 0 0 1 6.03 1.185 12.392 12.392 0 0 0 5.3 1.045 12.392 12.392 0 0 0 5.3-1.045 14.24 14.24 0 0 1 6.032-1.185 14.241 14.241 0 0 1 6.033 1.185 12.407 12.407 0 0 0 5.3 1.045 12.4 12.4 0 0 0 5.3-1.045 14.231 14.231 0 0 1 6.031-1.185 14.248 14.248 0 0 1 6.035 1.185 12.419 12.419 0 0 0 5.3 1.045 12.405 12.405 0 0 0 5.3-1.045 14.257 14.257 0 0 1 6.039-1.185 1 1 0 0 1 0 2 12.4 12.4 0 0 0 -5.3 1.046 14.261 14.261 0 0 1 -6.038 1.184z"/><path d="m59.66 64.75a14.257 14.257 0 0 1 -6.036-1.185 12.419 12.419 0 0 0 -5.3-1.045 13.567 13.567 0 0 0 -1.863.111 1 1 0 0 1 -.274-1.982 15.641 15.641 0 0 1 2.137-.129 14.254 14.254 0 0 1 6.036 1.185 12.423 12.423 0 0 0 5.3 1.045 12.416 12.416 0 0 0 5.3-1.045 14.254 14.254 0 0 1 6.04-1.185 1 1 0 0 1 0 2 12.416 12.416 0 0 0 -5.3 1.045 14.25 14.25 0 0 1 -6.04 1.185z"/><path d="m29.411 62.971a1.014 1.014 0 0 1 -.266-.036 11.381 11.381 0 0 0 -2.737-.4 1 1 0 1 1 .064-2 13.351 13.351 0 0 1 3.2.465 1 1 0 0 1 -.264 1.965z"/><path d="m14.33 64.75a14.267 14.267 0 0 1 -6.037-1.185 12.361 12.361 0 0 0 -5.293-1.045 1 1 0 0 1 0-2 14.233 14.233 0 0 1 6.026 1.18 12.4 12.4 0 0 0 5.3 1.046 12.135 12.135 0 0 0 4.758-.826 1 1 0 0 1 .7 1.872 14.131 14.131 0 0 1 -5.454.958z"/><path d="m36.99 64.75c-.218 0-.425 0-.631-.011a1 1 0 0 1 -.947-1.05 1.011 1.011 0 0 1 1.049-.947c.174.008.351.009.529.008a14.483 14.483 0 0 0 2.18-.149 1 1 0 1 1 .3 1.978 16.5 16.5 0 0 1 -2.48.171z"/><path d="m14.705 46.907a1 1 0 0 1 -1-1v-30.645a6.024 6.024 0 0 1 6.016-6.016 6.023 6.023 0 0 1 6.017 6.016v.558a1 1 0 0 1 -2 0v-.558a4.021 4.021 0 0 0 -4.017-4.016 4.024 4.024 0 0 0 -4.016 4.016v30.645a1 1 0 0 1 -1 1z"/><path d="m37.558 46.7a1 1 0 0 1 -1-1v-30.438a6.023 6.023 0 0 1 6.016-6.016 6.023 6.023 0 0 1 6.016 6.016v.558a1 1 0 0 1 -2 0v-.558a4.02 4.02 0 0 0 -4.016-4.016 4.022 4.022 0 0 0 -4.016 4.016v30.438a1 1 0 0 1 -1 1z"/><path d="m37.558 24.623h-22.853a1 1 0 0 1 0-2h22.853a1 1 0 0 1 0 2z"/><path d="m37.558 31.985h-22.853a1 1 0 1 1 0-2h22.853a1 1 0 1 1 0 2z"/><path d="m37.558 39.347h-22.853a1 1 0 1 1 0-2h22.853a1 1 0 0 1 0 2z"/></svg>