<svg height="512" viewBox="0 0 512 512" width="512" xmlns="http://www.w3.org/2000/svg" xmlns:xlink="http://www.w3.org/1999/xlink"><linearGradient id="a" gradientUnits="userSpaceOnUse" x1="90.714" x2="587.57" y1="557.286" y2="60.43" data-name="New Gradient Swatch 1"><stop offset="0" stop-color="#003f8a"/><stop offset=".518" stop-color="#00d7df"/><stop offset="1" stop-color="#006df0"/></linearGradient><linearGradient id="b" x1="32.714" x2="529.57" xlink:href="#a" y1="499.286" y2="2.43"/><linearGradient id="c" x1="60.714" x2="557.57" xlink:href="#a" y1="527.286" y2="30.43"/><linearGradient id="d" x1="-83.286" x2="413.57" xlink:href="#a" y1="383.286" y2="-113.57"/><linearGradient id="e" x1="-95.286" x2="401.57" xlink:href="#a" y1="371.286" y2="-125.57"/><linearGradient id="f" x1="-3.286" x2="493.57" xlink:href="#a" y1="463.286" y2="-33.57"/><linearGradient id="g" x1="-113.036" x2="383.82" xlink:href="#a" y1="353.536" y2="-143.32"/><linearGradient id="h" x1="-41.036" x2="455.82" xlink:href="#a" y1="425.536" y2="-71.32"/><g><path d="m496 432h-64v-16h48a8 8 0 0 0 8-8v-32a231.974 231.974 0 0 0 -224-231.85v-8.15h32a8 8 0 0 0 8-8v-32a8 8 0 0 0 -8-8h-80a8 8 0 0 0 -8 8v32a8 8 0 0 0 8 8h32v8.15a231.974 231.974 0 0 0 -224 231.85v32a8 8 0 0 0 8 8h48v16h-64a8 8 0 0 0 -8 8v48a8 8 0 0 0 8 8h480a8 8 0 0 0 8-8v-48a8 8 0 0 0 -8-8zm-272-312v-16h64v16zm-184 280v-24a216.007 216.007 0 0 1 368.74-152.74 214.619 214.619 0 0 1 63.26 152.74v24zm376 16v16h-320v-16zm72 64h-464v-32h464z" fill="url(#a)"/><path d="m96 456h-56a8 8 0 0 0 0 16h56a8 8 0 0 0 0-16z" fill="url(#b)"/><path d="m128 456h-8a8 8 0 0 0 0 16h8a8 8 0 0 0 0-16z" fill="url(#c)"/><path d="m256 72a8 8 0 0 0 8-8v-40a8 8 0 0 0 -16 0v40a8 8 0 0 0 8 8z" fill="url(#d)"/><path d="m144 120h40a8 8 0 0 0 0-16h-40a8 8 0 0 0 0 16z" fill="url(#e)"/><path d="m320 112a8 8 0 0 0 8 8h40a8 8 0 0 0 0-16h-40a8 8 0 0 0 -8 8z" fill="url(#f)"/><path d="m186.611 76.922a8 8 0 0 0 11.063-11.559l-23.285-22.285a8 8 0 0 0 -11.063 11.559z" fill="url(#g)"/><path d="m312.858 79.143a7.977 7.977 0 0 0 5.531-2.221l23.285-22.285a8 8 0 1 0 -11.063-11.559l-23.285 22.285a8 8 0 0 0 5.532 13.78z" fill="url(#h)"/></g></svg>