<?xml version="1.0"?>
<svg xmlns="http://www.w3.org/2000/svg" fill="#ffb612" viewBox="0 0 64 64" width="512" height="512"><g id="hand-security-shield-protection-protect"><path d="M37,49.45l16.25-9.38a4,4,0,0,1,5.46,1.47l2,3.46L35,61H9V45l6-2H33a4,4,0,0,1,4,4Z" style="fill:#ffc477"/><path d="M60.71,45l-1.7,1.06-.3-.52a4,4,0,0,0-5.46-1.47L37,53.45V51a4,4,0,0,0-4-4H15L9,49V45l6-2H33a4,4,0,0,1,4,4v2.45l16.25-9.38a4,4,0,0,1,5.46,1.47Z" style="fill:#ffa733"/><path d="M46,9V19.02a16.013,16.013,0,0,1-5.11,11.73L32,39l-8.89-8.25A16.013,16.013,0,0,1,18,19.02V9L32,3Z" style="fill:#ffde55"/><path d="M46,9V19.02a16.013,16.013,0,0,1-5.11,11.73L32,39l-2-1.86,6.89-6.39A16.013,16.013,0,0,0,42,19.02V9L30,3.86,32,3Z" style="fill:#ebbf00"/><rect x="3" y="45" width="6" height="16" style="fill:#2488ff"/><path d="M31.32,39.73a.991.991,0,0,0,1.36,0l8.89-8.25A17.074,17.074,0,0,0,47,19.02V9a1,1,0,0,0-.61-.92l-14-6a.963.963,0,0,0-.78,0l-14,6A1,1,0,0,0,17,9V19.02a17.074,17.074,0,0,0,5.43,12.46ZM19,9.66,32,4.09,45,9.66v9.36a15.043,15.043,0,0,1-4.79,10.99L32,37.64l-8.21-7.63A15.043,15.043,0,0,1,19,19.02Z"/><path d="M61.58,44.5l-2-3.46a5.01,5.01,0,0,0-6.83-1.84L38,47.72V47a5,5,0,0,0-5-5H15a1.185,1.185,0,0,0-.32.05L8.84,44H3a1,1,0,0,0-1,1V61a1,1,0,0,0,1,1H35a.988.988,0,0,0,.53-.15l25.71-16A1,1,0,0,0,61.58,44.5ZM8,60H4V46H8Zm26.71,0H10V45.72L15.16,44H33a3.009,3.009,0,0,1,3,3v3H20v2H37a1,1,0,0,0,1-1v-.97l15.75-9.09a2.986,2.986,0,0,1,2.28-.3,2.931,2.931,0,0,1,1.81,1.4l1.52,2.62Z"/><path d="M31,25a1,1,0,0,0,.707-.293l7-7-1.414-1.414L31,22.586l-3.293-3.293-1.414,1.414,4,4A1,1,0,0,0,31,25Z"/></g></svg>
